<svg width="49" height="74" viewBox="0 0 49 74" fill="none" xmlns="http://www.w3.org/2000/svg">
<path d="M12.1645 73.9999C18.8766 73.9999 24.3241 68.4746 24.3241 61.6666V49.3333H12.1645C5.45239 49.3333 0.00488281 54.8586 0.00488281 61.6666C0.00488281 68.4746 5.45239 73.9999 12.1645 73.9999Z" fill="url(#paint0_linear_2648_2127)"/>
<path d="M0.00488281 37.0001C0.00488281 30.1921 5.45239 24.6667 12.1645 24.6667H24.3241V49.3334H12.1645C5.45239 49.3334 0.00488281 43.8081 0.00488281 37.0001Z" fill="url(#paint1_linear_2648_2127)"/>
<path d="M0.00488281 12.3333C0.00488281 5.52533 5.45239 0 12.1645 0H24.3241V24.6667H12.1645C5.45239 24.6667 0.00488281 19.1413 0.00488281 12.3333Z" fill="url(#paint2_linear_2648_2127)"/>
<path d="M24.3241 0H36.4837C43.1958 0 48.6433 5.52533 48.6433 12.3333C48.6433 19.1413 43.1958 24.6667 36.4837 24.6667H24.3241V0Z" fill="url(#paint3_linear_2648_2127)"/>
<path d="M48.6433 37.0001C48.6433 43.8081 43.1958 49.3334 36.4837 49.3334C29.7716 49.3334 24.3241 43.8081 24.3241 37.0001C24.3241 30.1921 29.7716 24.6667 36.4837 24.6667C43.1958 24.6667 48.6433 30.1921 48.6433 37.0001Z" fill="url(#paint4_linear_2648_2127)"/>
<defs>
<linearGradient id="paint0_linear_2648_2127" x1="12.1645" y1="49.3333" x2="12.1645" y2="73.9999" gradientUnits="userSpaceOnUse">
<stop stop-color="#0ACF83"/>
<stop offset="1" stop-color="#0ACFCF"/>
</linearGradient>
<linearGradient id="paint1_linear_2648_2127" x1="12.1645" y1="24.6667" x2="12.1645" y2="49.3334" gradientUnits="userSpaceOnUse">
<stop stop-color="#A259FF"/>
<stop offset="1" stop-color="#5960FF"/>
</linearGradient>
<linearGradient id="paint2_linear_2648_2127" x1="12.1645" y1="0" x2="12.1645" y2="24.6667" gradientUnits="userSpaceOnUse">
<stop stop-color="#F24E1E"/>
<stop offset="1" stop-color="#E41717"/>
</linearGradient>
<linearGradient id="paint3_linear_2648_2127" x1="36.4837" y1="0" x2="36.4837" y2="24.6667" gradientUnits="userSpaceOnUse">
<stop stop-color="#FF7262"/>
<stop offset="1" stop-color="#E45E4E"/>
</linearGradient>
<linearGradient id="paint4_linear_2648_2127" x1="36.4837" y1="24.6667" x2="36.4837" y2="49.3334" gradientUnits="userSpaceOnUse">
<stop stop-color="#1ABCFE"/>
<stop offset="1" stop-color="#1A83FE"/>
</linearGradient>
</defs>
</svg>
