<svg width="74" height="74" viewBox="0 0 74 74" fill="none" xmlns="http://www.w3.org/2000/svg">
<circle cx="37" cy="37" r="36" fill="white"/>
<path d="M5.25934 36.9992C5.25934 49.563 12.5607 60.4205 23.1483 65.5657L8.00739 24.0815C6.24622 28.0291 5.25934 32.3976 5.25934 36.9992Z" fill="url(#paint0_linear_2751_724)"/>
<path d="M58.4279 35.3973C58.4279 31.4745 57.0188 28.7579 55.8103 26.6434C54.2013 24.0288 52.6932 21.8146 52.6932 19.2001C52.6932 16.2823 54.9061 13.5663 58.0232 13.5663C58.1639 13.5663 58.2974 13.5838 58.4345 13.5916C52.7874 8.41803 45.2638 5.25928 37.0003 5.25928C25.9114 5.25928 16.1555 10.9487 10.48 19.5661C11.2247 19.5884 11.9265 19.6041 12.5227 19.6041C15.8427 19.6041 20.9818 19.2013 20.9818 19.2013C22.6929 19.1004 22.8946 21.6135 21.1854 21.8159C21.1854 21.8159 19.4659 22.0182 17.5525 22.1184L29.1113 56.4993L36.0575 35.6667L31.1122 22.1172C29.403 22.017 27.7837 21.8146 27.7837 21.8146C26.0733 21.7144 26.2738 19.0992 27.9842 19.2001C27.9842 19.2001 33.2261 19.6029 36.345 19.6029C39.6644 19.6029 44.8042 19.2001 44.8042 19.2001C46.5164 19.0992 46.7175 21.6123 45.0077 21.8146C45.0077 21.8146 43.2846 22.017 41.3748 22.1172L52.8454 56.2378L56.0114 45.6581C57.3836 41.2679 58.4279 38.1145 58.4279 35.3973Z" fill="url(#paint1_linear_2751_724)"/>
<path d="M37.5572 39.7756L28.0338 67.4489C30.8773 68.2847 33.8845 68.742 37.0003 68.742C40.6966 68.742 44.2413 68.103 47.5408 66.9427C47.4556 66.8068 47.3783 66.6625 47.3149 66.5055L37.5572 39.7756Z" fill="url(#paint2_linear_2751_724)"/>
<path d="M64.8517 21.7708C64.9882 22.7818 65.0655 23.8671 65.0655 25.0346C65.0655 28.2556 64.464 31.8763 62.652 36.4037L52.9565 64.4357C62.3929 58.9329 68.74 48.7095 68.74 36.9998C68.7407 31.4814 67.331 26.2921 64.8517 21.7708Z" fill="url(#paint3_linear_2751_724)"/>
<path d="M37.0003 0C16.5989 0 0 16.5977 0 36.9991C0 57.403 16.5989 74 37.0003 74C57.4011 74 74.0024 57.403 74.0024 36.9991C74.0018 16.5977 57.4011 0 37.0003 0ZM37.0003 72.3041C17.5344 72.3041 1.69655 56.4662 1.69655 36.9991C1.69655 17.5332 17.5338 1.69655 37.0003 1.69655C56.4656 1.69655 72.3022 17.5332 72.3022 36.9991C72.3022 56.4662 56.4656 72.3041 37.0003 72.3041Z" fill="url(#paint4_linear_2751_724)"/>
<defs>
<linearGradient id="paint0_linear_2751_724" x1="14.2038" y1="24.0815" x2="14.2038" y2="65.5657" gradientUnits="userSpaceOnUse">
<stop stop-color="#5FACE4"/>
<stop offset="1" stop-color="#5F74E4"/>
</linearGradient>
<linearGradient id="paint1_linear_2751_724" x1="34.4573" y1="5.25928" x2="34.4573" y2="56.4993" gradientUnits="userSpaceOnUse">
<stop stop-color="#5FACE4"/>
<stop offset="1" stop-color="#5F74E4"/>
</linearGradient>
<linearGradient id="paint2_linear_2751_724" x1="37.7873" y1="39.7756" x2="37.7873" y2="68.742" gradientUnits="userSpaceOnUse">
<stop stop-color="#5FACE4"/>
<stop offset="1" stop-color="#5F74E4"/>
</linearGradient>
<linearGradient id="paint3_linear_2751_724" x1="60.8483" y1="21.7708" x2="60.8483" y2="64.4357" gradientUnits="userSpaceOnUse">
<stop stop-color="#5FACE4"/>
<stop offset="1" stop-color="#5F74E4"/>
</linearGradient>
<linearGradient id="paint4_linear_2751_724" x1="37.0012" y1="0" x2="37.0012" y2="74" gradientUnits="userSpaceOnUse">
<stop stop-color="#5FACE4"/>
<stop offset="1" stop-color="#5F74E4"/>
</linearGradient>
</defs>
</svg>
