<svg width="74" height="74" viewBox="0 0 74 74" fill="none" xmlns="http://www.w3.org/2000/svg">
<path d="M72.1778 33.744L40.2552 1.82299C38.4171 -0.0158674 35.4356 -0.0158674 33.596 1.82299L26.9678 8.45276L35.376 16.8609C37.3302 16.2005 39.5709 16.6437 41.1281 18.2017C42.6948 19.7692 43.134 22.029 42.4569 23.9904L50.5619 32.0946C52.5233 31.4182 54.7847 31.8559 56.3506 33.4242C58.5388 35.6123 58.5388 39.158 56.3506 41.3477C54.1608 43.5367 50.6152 43.5367 48.4246 41.3477C46.7791 39.7006 46.3717 37.2817 47.2064 35.2543L39.6473 27.6959V47.586C40.1804 47.8502 40.6841 48.2019 41.1281 48.6459C43.3163 50.8341 43.3163 54.3797 41.1281 56.5703C38.9399 58.7576 35.3919 58.7576 33.2053 56.5703C31.0171 54.3789 31.0171 50.8333 33.2053 48.6459C33.7464 48.1056 34.3726 47.6966 35.041 47.4229V27.3474C34.3726 27.0737 33.748 26.6687 33.2053 26.1244C31.5479 24.4678 31.1492 22.0345 31.999 19.9991L23.7102 11.7088L1.82055 33.596C-0.0183088 35.4365 -0.0183088 38.418 1.82055 40.2568L33.7448 72.1787C35.5829 74.0176 38.5635 74.0176 40.404 72.1787L72.1778 40.4048C74.0167 38.566 74.0167 35.5829 72.1778 33.744Z" fill="url(#paint0_linear_2648_2093)"/>
<defs>
<linearGradient id="paint0_linear_2648_2093" x1="36.9992" y1="0.443848" x2="36.9992" y2="73.5578" gradientUnits="userSpaceOnUse">
<stop stop-color="#FB6E53"/>
<stop offset="1" stop-color="#F03333"/>
</linearGradient>
</defs>
</svg>
