<svg width="74" height="74" viewBox="0 0 74 74" fill="none" xmlns="http://www.w3.org/2000/svg">
<rect x="17" y="27" width="53" height="43" fill="#293248"/>
<path d="M74 74H0V0H74V74ZM25.0778 58.5093L19.4538 61.9791C20.3303 63.9028 21.7509 65.5278 23.5402 66.6534C25.4841 67.7674 27.6929 68.3356 29.933 68.2979C31.108 68.2897 32.2786 68.1519 33.4233 67.8868C35.8185 67.2975 37.849 65.7155 39.0062 63.5372C40.1594 60.8239 40.5845 57.8565 40.2396 54.9286C40.2396 54.3694 40.2396 53.798 40.2396 53.2224C40.2601 49.0003 40.2396 44.7042 40.2396 40.5438C40.2396 38.4224 40.2396 36.297 40.2396 34.1674V33.9948H33.3C33.3 36.9794 33.3 39.9573 33.3 42.9282C33.3 45.917 33.3 48.9017 33.3 51.8946C33.3 52.6592 33.3 53.4074 33.3 54.1269C33.5064 56.1789 33.3576 58.251 32.8601 60.2524C32.2629 61.405 31.0339 62.0883 29.7398 61.9873C29.1601 61.9857 28.5838 61.8984 28.0296 61.7283C26.9162 61.1462 26.0185 60.2226 25.4683 59.0931L25.3327 58.8629C25.2052 58.645 25.1189 58.4929 25.0778 58.4929V58.5093ZM49.5348 57.6871L43.8902 60.9226C44.3524 61.9337 44.9898 62.8551 45.7731 63.6441C45.9663 63.8579 46.1842 64.0881 46.3857 64.343C49.1458 66.8115 52.753 68.118 56.4538 67.9896C61.2428 68.4615 65.7674 65.7116 67.5538 61.2432V61.2103C68.0217 59.568 68.0963 57.8385 67.7717 56.1619L67.9115 56.3633C67.303 52.5441 64.5362 49.8924 58.6532 47.5039C58.1969 47.2901 57.7241 47.0928 57.2637 46.8872C55.4342 46.0979 53.7076 45.3579 53.1073 44.0094C52.8399 43.3158 52.7911 42.5569 52.9676 41.8347C53.3932 40.3881 54.7891 39.45 56.2893 39.6023C56.7474 39.6024 57.2029 39.6688 57.6419 39.7997C58.9948 40.2555 60.0894 41.2663 60.6512 42.5788C63.8373 40.4944 63.8373 40.4944 66.0614 39.109C65.5526 38.2405 64.9472 37.4323 64.2567 36.6999C62.1463 34.4376 59.1184 33.2628 56.0344 33.5097H55.5411L53.3704 33.7851C51.3319 34.2426 49.4875 35.3265 48.0959 36.8849C46.46 38.9307 45.7233 41.5524 46.0541 44.1509C46.3849 46.7494 47.755 49.1029 49.8513 50.6736C51.6519 51.9059 53.5939 52.9176 55.6357 53.687C58.2709 54.797 60.5443 55.7426 61.0048 57.4733C61.2834 58.4757 61.0781 59.5507 60.4498 60.3799C59.3338 61.4819 57.7901 62.038 56.2277 61.901C55.7975 61.8997 55.3678 61.8722 54.9409 61.8188C52.616 61.2978 50.6367 59.7829 49.5266 57.6748L49.5348 57.6871Z" fill="url(#paint0_linear_2648_2106)"/>
<defs>
<linearGradient id="paint0_linear_2648_2106" x1="37" y1="0" x2="37" y2="74" gradientUnits="userSpaceOnUse">
<stop stop-color="#F7D41E"/>
<stop offset="1" stop-color="#F7BA1E"/>
</linearGradient>
</defs>
</svg>
