<svg width="83" height="74" viewBox="0 0 83 74" fill="none" xmlns="http://www.w3.org/2000/svg">
<path d="M41.4843 44.3951C45.5685 44.3951 48.8793 41.0843 48.8793 37.0002C48.8793 32.916 45.5685 29.6052 41.4843 29.6052C37.4002 29.6052 34.0894 32.916 34.0894 37.0002C34.0894 41.0843 37.4002 44.3951 41.4843 44.3951Z" fill="url(#paint0_linear_2648_2083)"/>
<path fill-rule="evenodd" clip-rule="evenodd" d="M33.9406 23.9315C32.5643 25.9503 31.2198 28.087 29.9269 30.3265C28.6339 32.566 27.4557 34.7988 26.3954 37.0001C27.4557 39.2014 28.6338 41.434 29.9268 43.6735C31.2198 45.9131 32.5643 48.0498 33.9406 50.0687C36.3765 50.251 38.8985 50.347 41.4838 50.347C44.0704 50.347 46.5937 50.2509 49.0308 50.0684C50.407 48.0496 51.7515 45.9129 53.0445 43.6734C54.3374 41.434 55.5155 39.2013 56.5758 37.0001C55.5155 34.7988 54.3374 32.5661 53.0444 30.3266C51.7514 28.0872 50.407 25.9506 49.0308 23.9318C46.5937 23.7492 44.0704 23.6531 41.4838 23.6531C38.8985 23.6531 36.3765 23.7491 33.9406 23.9315ZM29.3135 24.3929C28.4579 25.7303 27.6196 27.1082 26.8029 28.5228C25.9861 29.9375 25.212 31.3525 24.4816 32.7621C23.4554 30.3267 22.5829 27.9521 21.8687 25.674C24.1987 25.1535 26.6914 24.7218 29.3135 24.3929ZM36.6538 20.1551C38.2392 20.0829 39.851 20.0459 41.4838 20.0459C43.1178 20.0459 44.7309 20.083 46.3175 20.1553C44.7215 18.0489 43.1013 16.1061 41.4856 14.3486C39.8699 16.1061 38.2497 18.0488 36.6538 20.1551ZM38.9689 11.7565C36.5936 14.3258 34.228 17.255 31.947 20.4785C28.0148 20.842 24.2951 21.4261 20.8823 22.1985C20.4935 20.6609 20.1854 19.1812 19.9597 17.7722C19.3721 14.1047 19.3583 11.0137 19.8612 8.66244C20.3641 6.31098 21.3317 4.8999 22.5473 4.19805C23.763 3.4962 25.4688 3.36382 27.7567 4.10398C30.0443 4.84405 32.7144 6.40154 35.5968 8.74416C36.7042 9.64421 37.8317 10.6509 38.9689 11.7565ZM44.0022 11.7565C46.3776 14.3259 48.7434 17.2552 51.0244 20.4788C54.9565 20.8425 58.6761 21.4267 62.0887 22.1992C62.4777 20.6614 62.7858 19.1814 63.0116 17.7722C63.5992 14.1047 63.613 11.0136 63.1101 8.66236C62.6071 6.3109 61.6395 4.89982 60.4239 4.19797C59.2083 3.49612 57.5025 3.36373 55.2146 4.10389C52.9269 4.84397 50.2568 6.40146 47.3745 8.74407C46.267 9.64415 45.1395 10.6509 44.0022 11.7565ZM65.5851 23.0867C65.9998 21.4472 66.3301 19.8616 66.5734 18.3428C67.2018 14.4208 67.2662 10.8471 66.6376 7.90786C66.0089 4.9689 64.6351 2.46398 62.2276 1.07397C59.82 -0.316039 56.9637 -0.253337 54.1042 0.67174C51.2445 1.5969 48.1817 3.43956 45.0993 5.94474C43.9059 6.91474 42.6979 7.99347 41.4856 9.1722C40.2733 7.9935 39.0654 6.9148 37.8719 5.94483C34.7895 3.43964 31.7268 1.59698 28.867 0.671824C26.0075 -0.253253 23.1513 -0.315955 20.7437 1.07405C18.3361 2.46406 16.9623 4.96899 16.3337 7.90794C15.705 10.8472 15.7694 14.4209 16.3978 18.3429C16.6411 19.8613 16.9713 21.4466 17.3858 23.0857C15.7583 23.5464 14.2196 24.0532 12.7823 24.602C9.07157 26.0188 5.94441 27.7499 3.71332 29.764C1.48242 31.7779 0 34.2201 0 37.0001C0 39.7801 1.48242 42.2223 3.71332 44.2362C5.94441 46.2503 9.07157 47.9813 12.7823 49.3982C14.2196 49.9469 15.7583 50.4538 17.3859 50.9145C16.9713 52.5535 16.6412 54.1387 16.3979 55.6571C15.7695 59.5791 15.7051 63.1529 16.3338 66.0921C16.9624 69.031 18.3362 71.5359 20.7438 72.9259C23.1514 74.316 26.0076 74.2533 28.8671 73.3282C31.7269 72.403 34.7896 70.5604 37.872 68.0552C39.0654 67.0852 40.2733 66.0066 41.4856 64.8279C42.6979 66.0066 43.9058 67.0853 45.0992 68.0553C48.1816 70.5604 51.2444 72.4031 54.1041 73.3283C56.9637 74.2533 59.8199 74.316 62.2275 72.926C64.635 71.536 66.0088 69.0311 66.6375 66.0921C67.2661 63.1529 67.2017 59.5792 66.5733 55.6572C66.33 54.1385 65.9998 52.5529 65.5851 50.9135C67.2114 50.4531 68.749 49.9466 70.1852 49.3982C73.896 47.9813 77.0231 46.2503 79.2542 44.2362C81.4851 42.2223 82.9675 39.7801 82.9675 37.0001C82.9675 34.2201 81.4851 31.7779 79.2542 29.764C77.0231 27.7499 73.896 26.0188 70.1852 24.602C68.749 24.0536 67.2114 23.5471 65.5851 23.0867ZM61.1022 25.6748C58.7724 25.1542 56.28 24.7224 53.658 24.3934C54.5135 25.7307 55.3517 27.1085 56.1684 28.5229C56.9851 29.9375 57.7592 31.3525 58.4897 32.7621C59.5157 30.327 60.3881 27.9526 61.1022 25.6748ZM60.5629 37.0001C62.2141 33.4131 63.5679 29.8999 64.6053 26.5583C66.1308 26.9903 67.5658 27.4632 68.8985 27.972C72.3684 29.2969 75.0523 30.8305 76.837 32.4416C78.622 34.0529 79.3602 35.5964 79.3602 37.0001C79.3602 38.4038 78.622 39.9473 76.837 41.5586C75.0523 43.1697 72.3684 44.7033 68.8985 46.0282C67.5658 46.537 66.1308 47.0099 64.6053 47.4419C63.5679 44.1003 62.2141 40.5871 60.5629 37.0001ZM58.4896 41.2381C57.7592 42.6476 56.9851 44.0625 56.1685 45.4771C55.3518 46.8916 54.5135 48.2695 53.658 49.6068C56.2799 49.2778 58.7724 48.846 61.1022 48.3254C60.388 46.0476 59.5157 43.6732 58.4896 41.2381ZM62.0887 51.8009C58.676 52.5735 54.9565 53.1577 51.0244 53.5214C48.7434 56.745 46.3776 59.6742 44.0022 62.2436C45.1395 63.3492 46.267 64.3559 47.3744 65.2559C50.2567 67.5985 52.9268 69.156 55.2145 69.8961C57.5024 70.6363 59.2082 70.5039 60.4238 69.802C61.6395 69.1002 62.607 67.6891 63.11 65.3376C63.6129 62.9864 63.5991 59.8953 63.0115 56.2278C62.7857 54.8186 62.4776 53.3388 62.0887 51.8009ZM41.4856 59.6515C43.1013 57.894 44.7215 55.9512 46.3175 53.8449C44.7309 53.9172 43.1178 53.9543 41.4838 53.9543C39.851 53.9543 38.2392 53.9173 36.6539 53.8451C38.2498 55.9513 39.8699 57.894 41.4856 59.6515ZM29.3135 49.6073C28.4579 48.2698 27.6195 46.8918 26.8028 45.4772C25.9861 44.0626 25.212 42.6477 24.4816 41.2381C23.4554 43.6735 22.583 46.0481 21.8688 48.3262C24.1988 48.8467 26.6914 49.2784 29.3135 49.6073ZM20.8823 51.8017C24.2952 52.5741 28.0149 53.1582 31.9471 53.5217C34.228 56.7452 36.5936 59.6743 38.9689 62.2436C37.8317 63.3491 36.7043 64.3558 35.5969 65.2559C32.7145 67.5985 30.0444 69.156 27.7568 69.896C25.4689 70.6362 23.7631 70.5038 22.5474 69.8019C21.3318 69.1001 20.3642 67.689 19.8613 65.3376C19.3584 62.9864 19.3722 59.8953 19.9598 56.2278C20.1855 54.8188 20.4935 53.3392 20.8823 51.8017ZM18.3656 47.4428C16.8389 47.0106 15.4027 46.5374 14.069 46.0282C10.5991 44.7033 7.91524 43.1697 6.13048 41.5586C4.34554 39.9473 3.60728 38.4038 3.60728 37.0001C3.60728 35.5964 4.34554 34.0529 6.13048 32.4416C7.91524 30.8305 10.5991 29.2969 14.069 27.972C15.4027 27.4628 16.8388 26.9896 18.3656 26.5574C19.403 29.8993 20.757 33.4128 22.4083 37.0001C20.757 40.5874 19.403 44.101 18.3656 47.4428Z" fill="url(#paint1_linear_2648_2083)"/>
<defs>
<linearGradient id="paint0_linear_2648_2083" x1="41.4838" y1="0" x2="41.4838" y2="96.5" gradientUnits="userSpaceOnUse">
<stop stop-color="#61DFFB"/>
<stop offset="1" stop-color="#61C4FB"/>
</linearGradient>
<linearGradient id="paint1_linear_2648_2083" x1="41.4838" y1="0" x2="41.4838" y2="96.5" gradientUnits="userSpaceOnUse">
<stop stop-color="#61DFFB"/>
<stop offset="1" stop-color="#61C4FB"/>
</linearGradient>
</defs>
</svg>
