<svg width="98" height="74" viewBox="0 0 98 74" fill="none" xmlns="http://www.w3.org/2000/svg">
<path d="M83.9477 42.5325C80.5381 42.5505 77.5852 43.3784 75.1111 44.6147C74.2066 42.7861 73.2889 41.1773 73.1359 39.9814C72.9563 38.5859 72.7479 37.7512 72.9652 36.0887C73.1824 34.4261 74.1335 32.0702 74.1202 31.893C74.1069 31.7157 73.9074 30.8698 71.941 30.8541C69.9746 30.8407 68.292 31.2378 68.0947 31.7628C67.8973 32.2878 67.5183 33.4703 67.2833 34.7043C66.9396 36.5082 63.3571 42.9454 61.3242 46.3109C60.6592 44.9961 60.0939 43.8383 59.9764 42.9229C59.7968 41.5273 59.5884 40.6927 59.8057 39.0301C60.0229 37.3676 60.974 35.0117 60.9607 34.8344C60.9474 34.6572 60.7478 33.8113 58.7814 33.7956C56.8151 33.7821 55.1324 34.1793 54.9351 34.7043C54.7378 35.2293 54.525 36.4566 54.1237 37.6458C53.7203 38.8327 48.9606 49.5687 47.7125 52.3531C47.0762 53.7711 46.5242 54.9109 46.134 55.6872C46.1318 55.685 46.1318 55.6828 46.1318 55.6828C46.1318 55.6828 46.1074 55.7344 46.0675 55.8219C45.7328 56.4838 45.5355 56.8495 45.5355 56.8495C45.5355 56.8495 45.5377 56.854 45.5421 56.8629C45.2761 57.3498 44.9923 57.8008 44.8527 57.8008C44.7551 57.8008 44.5578 56.5062 44.8948 54.7292C45.6042 51.0047 47.3045 45.198 47.289 44.9961C47.2802 44.8929 47.606 43.881 46.1784 43.3515C44.7906 42.8377 44.2962 43.6947 44.1698 43.697C44.0479 43.6992 43.957 43.9999 43.957 43.9999C43.957 43.9999 45.5022 37.4685 41.0085 37.4685C38.1975 37.4685 34.3046 40.5805 32.387 43.4008C31.1766 44.0694 28.585 45.5009 25.8383 47.0289C24.783 47.6167 23.7056 48.2158 22.6836 48.7857C22.6149 48.7071 22.544 48.6309 22.473 48.5523C17.0217 42.6671 6.94806 38.5051 7.37371 30.5916C7.52889 27.7152 8.51763 20.1405 26.7339 10.9549C41.6559 3.42957 53.6028 5.50049 55.6667 10.0888C58.6152 16.6471 49.282 28.8326 33.7859 30.5916C27.8823 31.2625 24.772 28.9448 23.9983 28.0832C23.1847 27.1745 23.0627 27.1341 22.759 27.3046C22.2646 27.5828 22.5772 28.3838 22.759 28.8617C23.2223 30.0801 25.12 32.2407 28.3567 33.3177C31.2054 34.2645 38.1377 34.7828 46.5198 31.5003C55.9106 27.8252 63.2419 17.5984 61.087 9.05224C58.8967 0.360206 44.6553 -2.49825 31.1766 2.34811C23.1447 5.23349 14.4611 9.76125 8.21613 15.6711C0.791724 22.6983 -0.392101 28.8169 0.0956177 31.3724C1.82924 40.4549 14.1973 46.3692 19.1499 50.7511C18.906 50.888 18.6755 51.0159 18.4671 51.1326C15.9842 52.3756 6.55567 57.37 4.19689 62.6449C1.52109 68.6288 4.62253 72.9232 6.67538 73.5021C13.0357 75.2926 19.5622 72.0706 23.0716 66.7755C26.5787 61.4827 26.1509 54.5878 24.5414 51.4422C24.5214 51.404 24.4993 51.3659 24.4793 51.3255C25.12 50.9418 25.774 50.5514 26.4213 50.1655C27.685 49.4139 28.9264 48.7139 30.0016 48.1215C29.3986 49.7908 28.9575 51.7944 28.7291 54.6866C28.4587 58.0835 29.8354 62.4744 31.6355 64.202C32.4291 64.9626 33.3824 64.9806 33.9854 64.9806C36.0804 64.9806 37.0359 63.2171 38.0889 61.1304C39.3791 58.5726 40.5253 55.593 40.5253 55.593C40.5253 55.593 39.0887 63.6389 43.0038 63.6389C44.4314 63.6389 45.8658 61.7654 46.5065 60.8118C46.5087 60.823 46.5087 60.8275 46.5087 60.8275C46.5087 60.8275 46.5464 60.7647 46.6195 60.6413C46.7681 60.4124 46.8523 60.2666 46.8523 60.2666C46.8523 60.2666 46.8545 60.2509 46.8589 60.224C47.4331 59.2166 48.7056 56.919 50.6122 53.1294C53.0774 48.2337 55.4406 42.0995 55.4406 42.0995C55.4406 42.0995 55.66 43.5983 56.3805 46.0798C56.804 47.5382 57.704 49.1514 58.4157 50.6995C57.8437 51.5028 57.4934 51.9627 57.4934 51.9627C57.4934 51.9627 57.4956 51.9717 57.5023 51.9874C57.0456 52.6022 56.5335 53.2641 55.997 53.9102C54.0506 56.2549 51.7339 58.9339 51.4235 59.7057C51.0578 60.6166 51.1442 61.2852 51.8514 61.826C52.368 62.2186 53.2857 62.2814 54.2457 62.2164C55.9948 62.0975 57.223 61.6577 57.8304 61.3907C58.777 61.0519 59.8788 60.5201 60.9119 59.7506C62.8206 58.3303 63.9712 56.2998 63.8604 53.6073C63.7983 52.1243 63.3327 50.6547 62.7408 49.2681C62.9138 49.0168 63.0867 48.761 63.2618 48.5052C66.2701 44.0537 68.6045 39.1625 68.6045 39.1625C68.6045 39.1625 68.824 40.6613 69.5445 43.1428C69.9081 44.397 70.6286 45.7679 71.2759 47.1096C68.4471 49.4363 66.6936 52.14 66.0839 53.9125C64.9577 57.1928 65.8401 58.6781 67.4939 59.0169C68.2432 59.1694 69.3029 58.8217 70.0987 58.4806C71.0897 58.1486 72.2802 57.5944 73.393 56.7665C75.3018 55.3462 77.1374 53.3583 77.0265 50.6681C76.9756 49.4431 76.6475 48.227 76.2019 47.0603C78.6005 46.0484 81.7042 45.4875 85.6592 45.9541C94.1432 46.9571 95.8059 52.3172 95.4889 54.5609C95.1697 56.8046 93.3917 58.0386 92.7954 58.4111C92.2012 58.7835 92.0195 58.9137 92.0682 59.1896C92.1414 59.5913 92.4163 59.5778 92.924 59.4903C93.6223 59.3714 97.3777 57.6662 97.5395 53.5243C97.7413 48.2606 92.7643 42.4854 83.9477 42.5325ZM18.5558 64.8437C15.7447 67.9467 11.8208 69.118 10.136 68.1307C8.31811 67.065 9.0386 62.4968 12.4859 59.2031C14.5875 57.1973 17.301 55.3484 19.1011 54.2109C19.5112 53.9618 20.112 53.5961 20.8436 53.1519C20.9655 53.0823 21.0343 53.0442 21.0343 53.0442L21.032 53.0397C21.1739 52.9544 21.318 52.8669 21.4666 52.7749C22.7235 57.462 21.5065 61.5881 18.5558 64.8437ZM39.0289 50.7601C38.0512 53.1743 36.0028 59.3534 34.7547 59.0214C33.6839 58.7364 33.0321 54.0404 34.5418 49.4184C35.3 47.0917 36.9228 44.3118 37.8761 43.2325C39.4102 41.4959 41.0994 40.9283 41.5096 41.6328C42.0305 42.5303 39.6429 49.2456 39.0289 50.7601ZM55.9416 58.9271C55.527 59.147 55.1457 59.2839 54.9706 59.1784C54.8398 59.0999 55.1413 58.8105 55.1413 58.8105C55.1413 58.8105 57.2562 56.5062 58.0898 55.4584C58.5753 54.8481 59.1362 54.1234 59.748 53.3157C59.7525 53.3964 59.7547 53.4772 59.7547 53.5557C59.7502 56.3155 57.1166 58.1777 55.9416 58.9271ZM68.9703 55.9206C68.66 55.6985 68.7132 54.9782 69.7307 52.7323C70.1298 51.8505 71.0431 50.3675 72.626 48.9495C72.81 49.5328 72.9208 50.0915 72.9186 50.612C72.8987 54.0853 70.4512 55.3821 68.9703 55.9206Z" fill="url(#paint0_linear_2648_2080)"/>
<defs>
<linearGradient id="paint0_linear_2648_2080" x1="48.7727" y1="-2.79007e-08" x2="49.2417" y2="92.2248" gradientUnits="userSpaceOnUse">
<stop stop-color="#F06292"/>
<stop offset="1" stop-color="#F062C0"/>
</linearGradient>
</defs>
</svg>
