<svg width="74" height="74" viewBox="0 0 74 74" fill="none" xmlns="http://www.w3.org/2000/svg">
<path d="M0 37V0H74V74H0" fill="url(#paint0_linear_2648_2110)"/>
<path d="M16.2245 37.1294V40.1449H25.8445V67.5249H32.671V40.1449H42.291V37.1849C42.291 35.5199 42.291 34.1694 42.217 34.1324C42.217 34.0769 36.3525 34.0584 29.23 34.0584L16.28 34.1139V37.1479L16.2245 37.1294ZM59.459 34.0399C61.346 34.4839 62.789 35.3349 64.084 36.6854C64.7685 37.4254 65.786 38.7204 65.86 39.0534C65.86 39.1644 62.6595 41.3289 60.717 42.5314C60.643 42.5869 60.347 42.2724 60.051 41.7914C59.089 40.4224 58.1085 39.8304 56.573 39.7194C54.353 39.5714 52.873 40.7369 52.873 42.6794C52.873 43.2714 52.984 43.6044 53.206 44.0854C53.7055 45.1029 54.6305 45.7134 57.498 46.9714C62.789 49.2469 65.083 50.7454 66.4705 52.8914C68.043 55.2964 68.3945 59.0704 67.34 61.9009C66.156 64.9904 63.27 67.0809 59.1445 67.7654C57.8495 67.9874 54.8895 67.9504 53.502 67.7099C50.542 67.1549 47.7115 65.6749 45.9725 63.7694C45.288 63.0294 43.9745 61.0499 44.0485 60.9204L44.7515 60.4764L47.5265 58.8669L49.617 57.6459L50.098 58.2934C50.7085 59.2554 52.0775 60.5504 52.873 60.9944C55.278 62.2339 58.497 62.0674 60.088 60.6244C60.7725 59.9954 61.0685 59.3294 61.0685 58.4044C61.0685 57.5534 60.939 57.1649 60.5135 56.5174C59.9215 55.7034 58.7375 55.0374 55.4075 53.5574C51.578 51.9294 49.95 50.8934 48.433 49.3024C47.5635 48.3404 46.768 46.8419 46.398 45.6024C46.1205 44.5294 46.028 41.9024 46.287 40.8479C47.0825 37.1479 49.876 34.5579 53.872 33.8179C55.167 33.5589 58.2195 33.6699 59.496 34.0029L59.459 34.0399Z" fill="white"/>
<defs>
<linearGradient id="paint0_linear_2648_2110" x1="37" y1="0" x2="37" y2="74" gradientUnits="userSpaceOnUse">
<stop stop-color="#007ACC"/>
<stop offset="1" stop-color="#0039CC"/>
</linearGradient>
</defs>
</svg>
